<svg width="841" height="110" viewBox="0 0 841 110" fill="none" xmlns="http://www.w3.org/2000/svg">
<g clip-path="url(#clip0_113_19)">
<path d="M841 54.8899L818.452 108H791L814.893 54L792.476 0H818.734L841 54.8899Z" fill="#6BBA51"/>
</g>
<g clip-path="url(#clip1_113_19)">
<path d="M153.711 107.638H93V0.953674H114.653V88.4987H153.711V107.638H153.712L153.711 107.638Z" fill="#231815"/>
<path d="M167.042 107.638V0.953674H236.076V19.7892H188.695V44.737H226.669V63.2474H188.695V88.8238H236.076V107.659H167.042L167.042 107.638V107.638Z" fill="#231815"/>
<path d="M253.958 107.638V0.953674H290.524L316.252 88.8239H317.812V0.953674H339.466V107.638H303.854L277.172 19.7675H275.611V107.638H253.958V107.638Z" fill="#231815"/>
<path d="M384.354 107.638H362.701V0.953684H384.354V47.8582L398.79 46.2976L416.368 0.953674H440.991L417.777 54.4474L441.62 107.638H416.672L398.79 65.1115L384.354 66.6721V107.616L384.354 107.638V107.638Z" fill="#231815"/>
<path d="M455.73 107.638V0.953674H524.765V19.7892H477.383V44.737H515.358V63.2474H477.383V88.8238H524.765V107.659H455.73L455.73 107.638V107.638Z" fill="#231815"/>
<path d="M578.583 107.638H542.646V0.953674H578.583C587.795 0.953674 595.381 1.92904 601.342 3.85811C607.303 5.78718 611.941 8.97339 615.236 13.4384C618.53 17.8818 620.806 23.1055 622.063 29.1311C623.321 35.1567 623.949 42.9597 623.949 52.5834C623.949 62.207 623.364 70.1834 622.215 76.5125C621.066 82.8416 618.899 88.4987 615.713 93.4623C612.526 98.4258 607.888 102.046 601.819 104.278C595.75 106.532 588.012 107.659 578.605 107.659L578.583 107.638V107.638ZM601.342 65.2849C601.559 61.9469 601.646 57.3085 601.646 51.3912C601.646 45.474 601.429 40.7488 601.017 37.1942C600.605 33.6395 599.608 30.3882 598.026 27.4621C596.465 24.536 594.124 22.5202 591.047 21.4148C587.969 20.3094 583.807 19.7675 578.584 19.7675H564.3V88.8022H578.584C586.43 88.8022 592.13 86.8081 595.685 82.8416C598.72 79.5903 600.605 73.7381 601.342 65.2632L601.342 65.2849V65.2849Z" fill="#231815"/>
<path d="M640.877 107.638V29.1961H661.902V107.638H640.877Z" fill="#231815"/>
<path d="M702.369 107.638H681.344V29.1961H702.217V33.5962C709.327 29.4129 715.872 27.3104 721.833 27.3104C732.28 27.3104 739.498 30.3883 743.486 36.5656C747.453 42.743 749.447 52.2583 749.447 65.1115V107.638H728.422V65.7401C728.422 59.0425 727.642 54.1006 726.06 50.9144C724.499 47.7282 721.356 46.1243 716.653 46.1243C712.361 46.1243 708.221 46.8612 704.255 48.3134L702.369 48.942V107.616L702.369 107.638V107.638Z" fill="#231815"/>
<path d="M661.902 0H640.877V21.3281H661.902V0Z" fill="#231815"/>
</g>
<g clip-path="url(#clip2_113_19)">
<path d="M22.7109 0H49.4947L26.6289 55L51 110H22.9986L0 55.9064L22.7109 0Z" fill="#6BBA51"/>
</g>
<defs>
<clipPath id="clip0_113_19">
<rect width="50" height="108" fill="white" transform="translate(791)"/>
</clipPath>
<clipPath id="clip1_113_19">
<rect width="656.447" height="107.659" fill="white" transform="translate(93)"/>
</clipPath>
<clipPath id="clip2_113_19">
<rect width="51" height="110" fill="white"/>
</clipPath>
</defs>
</svg>
